<svg width="36" height="61" viewBox="0 0 36 61" fill="none" xmlns="http://www.w3.org/2000/svg">
<path d="M36 4.6498C35.9989 5.6387 35.5178 6.58678 34.6624 7.2856L11.339 26.3628C10.633 26.9401 10.073 27.6254 9.69095 28.3798C9.30888 29.1341 9.11223 29.9426 9.11223 30.7591C9.11223 31.5756 9.30888 32.3841 9.69095 33.1384C10.073 33.8927 10.633 34.5781 11.339 35.1554L34.632 54.2077C35.4626 54.9112 35.9223 55.8534 35.9119 56.8313C35.9015 57.8093 35.4219 58.7448 34.5764 59.4363C33.7309 60.1279 32.5872 60.5202 31.3916 60.5287C30.1959 60.5372 29.044 60.1612 28.184 59.4818L4.89099 40.4444C1.75901 37.8776 0 34.3992 0 30.7728C0 27.1463 1.75901 23.668 4.89099 21.1011L28.2144 2.01152C28.8521 1.48955 29.6649 1.13403 30.5497 0.989976C31.4345 0.845917 32.3518 0.919784 33.1853 1.20223C34.0188 1.48468 34.7311 1.96301 35.2321 2.5767C35.7332 3.19039 36.0004 3.91185 36 4.6498Z" fill="#494949"/>
</svg>
